inDegrees=yes
name=ik_appendData_SPIN
DataType=double
version=3
OpenSimVersion=4.5
endheader
time	pelvis_tilt	pelvis_list	pelvis_rotation	pelvis_tx	pelvis_ty	pelvis_tz	hip_flexion_r	hip_adduction_r	hip_rotation_r	knee_angle_r	knee_angle_r_beta	ankle_angle_r	subtalar_angle_r	mtp_angle_r	hip_flexion_l	hip_adduction_l	hip_rotation_l	knee_angle_l	knee_angle_l_beta	ankle_angle_l	subtalar_angle_l	mtp_angle_l	lumbar_extension	lumbar_bending	lumbar_rotation	arm_flex_r	arm_add_r	arm_rot_r	elbow_flex_r	pro_sup_r	wrist_flex_r	wrist_dev_r	arm_flex_l	arm_add_l	arm_rot_l	elbow_flex_l	pro_sup_l	wrist_flex_l	wrist_dev_l
50	-2.339588653706278	89.91069930930927	-4.622468227973433	0	0.9399999999999999	0	44.7543549915083	-10.01339170810676	0	59.96517125508621	1.046589674923515	-5.001429690053191	0	0	44.7543549915083	-10.01339170810676	0	59.96517125508621	1.046589674923515	-5.001429690053191	0	0	1.151945159326238	0.1368102195500593	5.825720239420066	0	-13.0055684733448	0	75.70363046053693	44.97611196856921	0	0	-9.277001357742469	-25.8031018150391	-6.363960100747202	12.28711064628713	44.97611196856921	0	0
51	-2.330475041090092	89.91078774125874	-4.620712604812613	0	0.9399999999999999	0	44.75754009842575	-10.01299981488329	0	59.96562403032715	1.046597577342241	-5.001380754192929	0	0	44.75754009842575	-10.01299981488329	0	59.96562403032715	1.046597577342241	-5.001380754192929	0	0	1.145534126051309	0.1370991937834596	5.818317524728023	0	-13.02151693798281	0	75.69450901290942	44.97671784725672	0	0	-10.7173325104208	-31.26943212596986	-7.930325087655819	14.25484894757624	44.97671784725672	0	0
52	-2.322954307830513	89.91064991539263	-4.627281804482705	0	0.9399999999999999	0	44.76143127729147	-10.01252627325874	0	59.9661743079384	1.046607181498357	-5.001321890717525	0	0	44.76143127729147	-10.01252627325874	0	59.9661743079384	1.046607181498357	-5.001321890717525	0	0	1.148309966563205	0.1378072269662806	5.816086155376975	0	-13.0410367735276	0	75.68336553454276	44.97745229970793	0	0	-14.17359069051999	-37.38609132063971	-9.859345741164331	17.99992646237729	44.97745229970793	0	0
53	-2.339235706757882	89.91087839955593	-4.595143125839469	0	0.9399999999999999	0	44.76519578894229	-10.01207935919518	0	59.96670516029921	1.046616446619895	-5.001266827679413	0	0	44.76519578894229	-10.01207935919518	0	59.96670516029921	1.046616446619895	-5.001266827679413	0	0	1.180526138260534	0.1335890518502304	5.799823017170548	0	-13.06003215697122	0	75.67258481767503	44.97815002467789	0	0	-18.48399630427837	-43.38384887760955	-13.12841678006412	21.40338308446238	44.97815002467789	0	0
54	-2.34502555670633	89.91131089164693	-4.629291405168911	0	0.9399999999999999	0	44.76677699584313	-10.01187385555574	0	59.96692075789587	1.046620209507816	-5.001240747400823	0	0	44.76677699584313	-10.01187385555574	0	59.96692075789587	1.046620209507816	-5.001240747400823	0	0	1.119702167840283	0.1469312347496912	5.860085207446085	0	-13.06779975434206	0	75.66805656700453	44.97846370926726	0	0	-16.44312872098432	-46.60768225871942	-12.07644253416967	20.77091907942836	44.97846370926726	0	0
55	-2.318929663839492	89.91106732044378	-4.6261011344889	0	0.9399999999999999	0	44.7668398139035	-10.0118635205987	0	59.96692604335257	1.046620301756438	-5.00123941794634	0	0	44.7668398139035	-10.0118635205987	0	59.96692604335257	1.046620301756438	-5.00123941794634	0	0	1.164229078000381	0.1163228451159294	5.764287726251331	0	-13.06805036430557	0	75.66787666159145	44.97847910775607	0	0	-15.73372326443072	-47.73619926639336	-12.66971135618653	19.91567357524283	44.97847910775607	0	0
56	-1.699890763002732	89.91106480043894	-5.254575943405869	0	0.9399999999999999	0	44.77332002109	-10.01062447032507	0	59.96763154938671	1.046632615159627	-5.001071917740792	0	0	44.77332002109	-10.01062447032507	0	59.96763154938671	1.046632615159627	-5.001071917740792	0	0	1.167563806822396	0.1179222769547595	5.78106046360813	0	-13.09390175659643	0	75.64931802130032	44.98025231428066	0	0	-15.67024550631475	-48.22297642208538	-12.79434907764538	19.31783537323647	44.98025231428066	0	0
57	-1.695152354931856	89.91180154460029	-5.275768384387504	0	0.9399999999999999	0	44.77354373228691	-10.01058773929308	0	59.9676566619648	1.046633053456798	-5.001067081632734	0	0	44.77354373228691	-10.01058773929308	0	59.9676566619648	1.046633053456798	-5.001067081632734	0	0	1.148740762635225	0.1437371085190249	5.851460143542621	0	-13.09486330547888	0	75.64867734221851	44.98030630051884	0	0	-13.40067546206503	-48.14398225438924	-11.66029127488104	17.60626347179436	44.98030630051884	0	0
58	-1.675449135550286	89.91077510849502	-5.26998047383681	0	0.9399999999999999	0	44.77364855322439	-10.01057122624983	0	59.96766876808384	1.046633264748435	-5.001064927723961	0	0	44.77364855322439	-10.01057122624983	0	59.96766876808384	1.046633264748435	-5.001064927723961	0	0	1.16311245364414	0.1331192019371913	5.773802990589651	0	-13.09532331531223	0	75.64837715022924	44.98033076670274	0	0	-13.17770727165969	-46.82509444405593	-11.35990624895172	17.84450406443502	44.98033076670274	0	0
59	-1.677827157562332	89.90978352080216	-5.281677383869791	0	0.9399999999999999	0	44.77370240170666	-10.01056245846615	0	59.96767484270417	1.04663337077056	-5.001063775853322	0	0	44.77370240170666	-10.01056245846615	0	59.96767484270417	1.04663337077056	-5.001063775853322	0	0	1.153181125524989	0.1430853302594206	5.82690028204446	0	-13.09555566327589	0	75.6482229354724	44.98034367603106	0	0	-13.02673517250476	-45.90414423440048	-11.79851349933201	17.44318946019653	44.98034367603106	0	0
60	-1.666041383681924	89.91055386509473	-5.287022802226959	0	0.9399999999999999	0	44.77387237693491	-10.01053474862432	0	59.96769398075308	1.046633704792526	-5.001060135717431	0	0	44.77387237693491	-10.01053474862432	0	59.96769398075308	1.046633704792526	-5.001060135717431	0	0	1.144784454046793	0.1386251519692046	5.822057579119926	0	-13.09628820479118	0	75.64773614936769	44.98038447227376	0	0	-14.03351425122042	-43.89446889298932	-12.68559454454192	17.35398784759432	44.98038447227376	0	0
61	-1.631271544680073	89.91048580186339	-5.321832859361091	0	0.9399999999999999	0	44.77770038159271	-10.01009594381071	0	59.96822739955885	1.046643014706979	-5.001007120083862	0	0	44.77770038159271	-10.01009594381071	0	59.96822739955885	1.046643014706979	-5.001007120083862	0	0	1.145618183675355	0.1380350216101458	5.821368216640306	0	-13.11563217038656	0	75.63677361148947	44.98107817885591	0	0	-11.53335750171656	-37.20159147146315	-10.71676546302225	15.2881875946341	44.98107817885591	0	0
62	-1.622986698037254	89.91060042588643	-5.318132345892821	0	0.9399999999999999	0	44.78157520018014	-10.0096814678908	0	59.96877689624309	1.046652605233348	-5.000958121997817	0	0	44.78157520018014	-10.0096814678908	0	59.96877689624309	1.046652605233348	-5.000958121997817	0	0	1.147263508295956	0.1331492870458961	5.789227181416797	0	-13.13563575829627	0	75.62567705896024	44.98174452635081	0	0	-10.5214818904282	-29.37295455505216	-9.505058529433782	13.11805762993345	44.98174452635081	0	0
63	-1.608747664321491	89.91148335031788	-5.329361296774104	0	0.9399999999999999	0	44.78510981874608	-10.00930729908015	0	59.96927489323194	1.046661296920468	-5.000914074417178	0	0	44.78510981874608	-10.00930729908015	0	59.96927489323194	1.046661296920468	-5.000914074417178	0	0	1.141368679972603	0.1270470455780889	5.792382941503621	0	-13.15391596161213	0	75.6155547618085	44.98234787461598	0	0	-8.953822042822223	-21.74402664356937	-8.838200803068681	10.71904513710671	44.98234787461598	0	0
64	-1.636298873131495	89.91076660315053	-5.329349007011707	0	0.9399999999999999	0	44.78805920852453	-10.0090088306874	0	59.96969694816303	1.04666866316864	-5.000879363130673	0	0	44.78805920852453	-10.0090088306874	0	59.96969694816303	1.04666866316864	-5.000879363130673	0	0	1.137547525792937	0.1438495788248055	5.833440694481627	0	-13.16941947271723	0	75.60710844513746	44.98283398978356	0	0	-10.35502477522845	-16.34872079489084	-8.445784775618028	11.42894196636558	44.98283398978356	0	0
65	-1.6260299723419	89.90981547807044	-5.31789553958782	0	0.9399999999999999	0	44.79008679426649	-10.008798337948	0	59.96998683643395	1.046673722673431	-5.000854587309236	0	0	44.79008679426649	-10.008798337948	0	59.96998683643395	1.046673722673431	-5.000854587309236	0	0	1.14892549267237	0.1475755590693779	5.800986781841457	0	-13.18004667388957	0	75.60130194146198	44.98317404343644	0	0	-9.317340410852912	-10.46004583300363	-7.027485489524361	9.695316575057026	44.98317404343644	0	0
66	-1.634183071891839	89.91060782809676	-5.316895586701424	0	0.9399999999999999	0	44.79210457177553	-10.00859983364361	0	59.97027677065277	1.046678782980163	-5.00083167760186	0	0	44.79210457177553	-10.00859983364361	0	59.97027677065277	1.046678782980163	-5.00083167760186	0	0	1.143795437504264	0.1408806126639497	5.820485626728332	0	-13.19075996643605	0	75.59552354020121	44.98349938591084	0	0	-9.721180946371748	-5.856689688105094	-5.921598376201715	9.451956086680438	44.98349938591084	0	0
67	-1.626315929922799	89.91045923318701	-5.325706542263125	0	0.9399999999999999	0	44.79361402067497	-10.00844997692272	0	59.97049236935619	1.046682545887401	-5.000814325636378	0	0	44.79361402067497	-10.00844997692272	0	59.97049236935619	1.046682545887401	-5.000814325636378	0	0	1.145484263538536	0.138068831179005	5.820679743141163	0	-13.19875502114792	0	75.59120086061549	44.98374440558934	0	0	-9.162051568031998	-1.292638220121164	-4.761193852096786	8.167109435628417	44.98374440558934	0	0
68	-1.609840441905891	89.90943292932148	-5.347096450756922	0	0.9399999999999999	0	44.79436184169244	-10.00836312083268	0	59.97059559595614	1.046684347531446	-5.000803755075762	0	0	44.79436184169244	-10.00836312083268	0	59.97059559595614	1.046684347531446	-5.000803755075762	0	0	1.147093160680393	0.146790529155489	5.836850397754562	0	-13.20254582638288	0	75.58905927377558	44.98388101131037	0	0	-5.213803512384256	4.812796100104898	-2.963608541861622	3.159955766885615	44.98388101131037	0	0
69	-1.6026773492317	89.9103087526955	-5.337111153489754	0	0.9399999999999999	0	44.79444353585978	-10.00835151641476	0	59.97060481115306	1.046684508366973	-5.000802300111893	0	0	44.79444353585978	-10.00835151641476	0	59.97060481115306	1.046684508366973	-5.000802300111893	0	0	1.151186839549227	0.1366903390802262	5.815810938559241	0	-13.20291157056764	0	75.58882531590504	44.9838987048451	0	0	-6.318344434577517	5.201626972518442	-2.305303989801202	4.108666500174736	44.9838987048451	0	0
70	-1.616375448528933	89.90956543021773	-5.337215533439008	0	0.9399999999999999	0	44.79863789967148	-10.0077242190609	0	59.97106252487115	1.046692496978385	-5.000724021530051	0	0	44.79863789967148	-10.0077242190609	0	59.97106252487115	1.046692496978385	-5.000724021530051	0	0	1.136983895378231	0.1457163725974602	5.823555181601971	0	-13.22084934342901	0	75.57681333152256	44.98485300362378	0	0	-5.188412822203588	4.818659275159901	-2.972722484481248	3.146354561286787	44.98485300362378	0	0
71	-0.9916145848925629	89.91027818201783	-5.961379363398255	0	0.9399999999999999	0	44.80367361718855	-10.00707229184207	0	59.97163845946142	1.046702548933262	-5.000646389806498	0	0	44.80367361718855	-10.00707229184207	0	59.97163845946142	1.046702548933262	-5.000646389806498	0	0	1.142559062047515	0.1397256625083791	5.824436093771759	0	-13.2435221550736	0	75.56239200528773	44.98588023914923	0	0	-5.269051698992661	4.179006281771422	-3.054815489093459	3.33946163427204	44.98588023914923	0	0
72	-0.9879467245754182	89.90996280267031	-5.963638502843678	0	0.9399999999999999	0	44.80372100305871	-10.00706630291826	0	59.97164383986765	1.046702642839065	-5.000645675102597	0	0	44.80372100305871	-10.00706630291826	0	59.97164383986765	1.046702642839065	-5.000645675102597	0	0	1.146535022937354	0.1191621056133984	5.821608549886837	0	-13.24373869853372	0	75.56225630130464	44.98588969085947	0	0	-5.274369111501069	4.151885888494085	-3.060868848186333	3.333901037115587	44.98588969085947	0	0
73	-0.9857534823349022	89.91020150566965	-5.966893771854498	0	0.9399999999999999	0	44.80378440128334	-10.00705830243102	0	59.97165104548842	1.046702768600873	-5.000644720707968	0	0	44.80378440128334	-10.00705830243102	0	59.97165104548842	1.046702768600873	-5.000644720707968	0	0	1.14500661705488	0.1382448101622075	5.820529514704366	0	-13.24402864327931	0	75.56207474105257	44.98590232110035	0	0	-5.261352751419683	4.227018772224747	-3.628135664068322	3.357593793962823	44.98590232110035	0	0
